<svg xmlns="http://www.w3.org/2000/svg" viewBox="0 0 320 220">
  <rect width="320" height="220" rx="28" fill="#f8efe5"/>
  <ellipse cx="164" cy="184" rx="110" ry="18" fill="#d7c2ad"/>
  <rect x="66" y="56" width="188" height="106" rx="22" fill="#c9352c"/>
  <rect x="80" y="70" width="160" height="78" rx="16" fill="#fff7ef"/>
  <path d="M120 120c0-18 12-33 30-33 9 0 19 5 26 14 7-9 17-14 26-14 18 0 30 15 30 33 0 25-21 38-56 38s-56-13-56-38Z" fill="#cf712f"/>
  <path d="M117 116c10 10 24 15 40 15 17 0 31-5 41-16" fill="none" stroke="#7e3b18" stroke-width="8" stroke-linecap="round"/>
  <circle cx="129" cy="118" r="6" fill="#f7c26d"/>
  <circle cx="168" cy="102" r="5" fill="#f7c26d"/>
  <circle cx="202" cy="122" r="6" fill="#f7c26d"/>
  <text x="160" y="54" text-anchor="middle" font-size="20" fill="#8f2a22" font-weight="700">McDonald's Spicy Wings</text>
</svg>
