<svg xmlns="http://www.w3.org/2000/svg" viewBox="0 0 320 220">
  <rect width="320" height="220" rx="28" fill="#f8efe5"/>
  <ellipse cx="160" cy="184" rx="112" ry="18" fill="#d7c2ad"/>
  <rect x="78" y="60" width="164" height="112" rx="24" fill="#d5402f"/>
  <rect x="92" y="74" width="136" height="84" rx="18" fill="#fff7ef"/>
  <g fill="#d59643">
    <rect x="102" y="86" width="28" height="20" rx="10"/>
    <rect x="136" y="84" width="28" height="22" rx="10"/>
    <rect x="170" y="86" width="28" height="20" rx="10"/>
    <rect x="114" y="112" width="28" height="20" rx="10"/>
    <rect x="148" y="110" width="28" height="22" rx="10"/>
    <rect x="182" y="112" width="28" height="20" rx="10"/>
    <rect x="102" y="136" width="28" height="18" rx="9"/>
    <rect x="136" y="134" width="28" height="20" rx="9"/>
    <rect x="170" y="136" width="28" height="18" rx="9"/>
    <rect x="204" y="134" width="18" height="20" rx="9"/>
  </g>
  <text x="160" y="52" text-anchor="middle" font-size="20" fill="#8f2a22" font-weight="700">McDonald's McNuggets 10</text>
</svg>
