<svg xmlns="http://www.w3.org/2000/svg" viewBox="0 0 320 220">
  <rect width="320" height="220" rx="28" fill="#f8eee5"/>
  <ellipse cx="160" cy="184" rx="108" ry="16" fill="#d7c1ac"/>
  <ellipse cx="160" cy="132" rx="76" ry="34" fill="#f7f0e8"/>
  <ellipse cx="160" cy="138" rx="58" ry="22" fill="#fff8ef"/>
  <path d="M118 126c13-11 30-17 46-17 18 0 31 7 40 18-8 12-21 19-39 19-22 1-38-6-47-20Z" fill="#b87042"/>
  <path d="M128 117c22 0 39 9 45 27-14 4-30 3-45-3-7-9-7-17 0-24Z" fill="#d9a45a"/>
  <text x="160" y="52" text-anchor="middle" font-size="17" fill="#956247" font-weight="700">Orleans Chicken Rice</text>
</svg>
