<svg xmlns="http://www.w3.org/2000/svg" viewBox="0 0 320 220">
  <rect width="320" height="220" rx="28" fill="#f8efe6"/>
  <ellipse cx="160" cy="184" rx="108" ry="16" fill="#d7c1ae"/>
  <ellipse cx="160" cy="132" rx="76" ry="34" fill="#f7f0e8"/>
  <ellipse cx="160" cy="138" rx="58" ry="22" fill="#fff8ef"/>
  <path d="M118 126c11-11 30-17 47-17 18 0 31 7 41 18-8 12-22 19-40 19-22 1-38-5-48-20Z" fill="#a15d3f"/>
  <path d="M128 120c8 0 15 4 21 10-10 5-19 6-28 4 1-7 3-11 7-14Z" fill="#ef8852"/>
  <path d="M170 123c9-7 18-8 27-3-6 8-14 12-26 13-5-2-6-6-1-10Z" fill="#8b533c"/>
  <text x="160" y="52" text-anchor="middle" font-size="16" fill="#885740" font-weight="700">Yoshinoya Kimchi Beef</text>
</svg>
