<svg xmlns="http://www.w3.org/2000/svg" viewBox="0 0 320 220">
  <rect width="320" height="220" rx="28" fill="#f8eee5"/>
  <ellipse cx="160" cy="184" rx="108" ry="16" fill="#d6c0ad"/>
  <ellipse cx="160" cy="132" rx="76" ry="34" fill="#f7f0e8"/>
  <ellipse cx="160" cy="138" rx="58" ry="22" fill="#fff8ef"/>
  <path d="M118 126c12-12 29-18 46-18 18 0 31 7 41 18-8 13-22 21-41 21-21 0-36-7-46-21Z" fill="#c38b43"/>
  <path d="M127 121c9-7 18-8 27-2-6 8-14 12-25 14-5-3-6-7-2-12Z" fill="#8e563d"/>
  <text x="160" y="52" text-anchor="middle" font-size="17" fill="#8b5a42" font-weight="700">Yoshinoya Curry Beef</text>
</svg>
