<svg xmlns="http://www.w3.org/2000/svg" viewBox="0 0 320 220">
  <rect width="320" height="220" rx="28" fill="#f8efe7"/>
  <ellipse cx="160" cy="184" rx="108" ry="16" fill="#d7c1ae"/>
  <ellipse cx="160" cy="132" rx="76" ry="34" fill="#f6efe8"/>
  <ellipse cx="160" cy="138" rx="58" ry="22" fill="#fff8f0"/>
  <path d="M118 126c12-11 29-17 45-17 18 0 31 7 41 18-8 13-22 20-42 20-21 0-35-7-44-21Z" fill="#f1debb"/>
  <path d="M130 118h44c-2 16-9 25-23 26-15 1-22-7-21-26Z" fill="#d6a25d"/>
  <path d="M142 118h20c0 9-3 16-10 22-7-6-10-13-10-22Z" fill="#f6dc85"/>
  <text x="160" y="52" text-anchor="middle" font-size="14" fill="#a26546" font-weight="700">Yuzicun Cheese Cutlet Roe</text>
</svg>
