<svg xmlns="http://www.w3.org/2000/svg" viewBox="0 0 320 220">
  <rect width="320" height="220" rx="28" fill="#f8eee6"/>
  <ellipse cx="160" cy="184" rx="108" ry="16" fill="#d8c1ad"/>
  <ellipse cx="160" cy="132" rx="76" ry="34" fill="#f5efe7"/>
  <ellipse cx="160" cy="138" rx="58" ry="22" fill="#fff8ef"/>
  <path d="M118 125c11-12 29-18 46-18 18 0 31 7 41 18-8 14-23 22-44 22-20 0-34-7-43-22Z" fill="#f0ddaf"/>
  <path d="M128 120c8 0 15 4 21 10-10 5-19 6-28 4 1-7 3-11 7-14Z" fill="#ef8550"/>
  <circle cx="178" cy="123" r="8" fill="#f28d57"/>
  <text x="160" y="52" text-anchor="middle" font-size="17" fill="#a5603f" font-weight="700">Yuzicun Kimchi Roe Rice</text>
</svg>
