<svg xmlns="http://www.w3.org/2000/svg" viewBox="0 0 320 220">
  <rect width="320" height="220" rx="28" fill="#eef8ee"/>
  <ellipse cx="160" cy="184" rx="96" ry="16" fill="#d6e2d2"/>
  <path d="M88 128h144l-14 28c-8 16-24 26-41 26h-34c-17 0-33-10-41-26l-14-28Z" fill="#be8352"/>
  <path d="M104 122c0-12 12-22 28-22 14 0 22 6 28 14 5-8 14-14 28-14 16 0 28 10 28 22H104Z" fill="#72b95f"/>
  <path d="M130 98c10-18 18-24 26-24" stroke="#84ca74" stroke-width="8" stroke-linecap="round"/>
  <path d="M188 98c10-18 18-24 26-24" stroke="#7bc56a" stroke-width="8" stroke-linecap="round"/>
</svg>
