<svg xmlns="http://www.w3.org/2000/svg" viewBox="0 0 320 220">
  <rect width="320" height="220" rx="28" fill="#fdf0f2"/>
  <ellipse cx="160" cy="184" rx="96" ry="16" fill="#e3cfd4"/>
  <path d="M100 142h120c9 0 16 7 16 16s-7 16-16 16H100c-9 0-16-7-16-16s7-16 16-16Z" fill="#855134"/>
  <g><path d="M132 114c0-16 12-28 28-28s28 12 28 28c0 18-16 34-28 46-12-12-28-28-28-46Z" fill="#ef4654"/><path d="M146 89c5 0 9 2 14 6 5-4 9-6 14-6-5 7-8 12-8 17h-12c0-5-3-10-8-17Z" fill="#69a64d"/></g>
  <circle cx="144" cy="122" r="2" fill="#ffd988"/><circle cx="160" cy="135" r="2" fill="#ffd988"/><circle cx="174" cy="121" r="2" fill="#ffd988"/>

</svg>
