<svg xmlns="http://www.w3.org/2000/svg" viewBox="0 0 320 220">
  <rect width="320" height="220" rx="28" fill="#f8efe5"/>
  <ellipse cx="160" cy="184" rx="96" ry="16" fill="#ddcbbf"/>
  <path d="M104 142h120c9 0 16 7 16 16s-7 16-16 16H104c-9 0-16-7-16-16s7-16 16-16Z" fill="#86543b"/>
  <g fill="#ad7a4e"><path d="M119 118c10-8 20-8 30 0-1 14-6 21-15 21s-14-7-15-21Z"/><path d="M165 116c10-8 20-8 30 0-1 14-6 21-15 21s-14-7-15-21Z"/><path d="M143 138c10-8 20-8 30 0-1 14-6 21-15 21s-14-7-15-21Z"/></g>

</svg>
