<svg xmlns="http://www.w3.org/2000/svg" viewBox="0 0 320 220">
  <rect width="320" height="220" rx="28" fill="#eef7f0"/>
  <ellipse cx="160" cy="188" rx="88" ry="15" fill="#d7dee8"/>
  <rect x="146" y="28" width="28" height="16" rx="6" fill="#d33b3b"/>
  <rect x="150" y="42" width="20" height="28" rx="8" fill="#1f6b3a"/>
  <path d="M136 70h48l10 92c2 21-13 38-35 38h-8c-22 0-37-17-35-38l10-92Z" fill="#1f6b3a"/>
  <path d="M145 78h30c12 0 22 10 22 22v54c0 20-16 36-36 36h-2c-20 0-36-16-36-36v-54c0-12 10-22 22-22Z" fill="rgba(255,255,255,0.08)"/>
  <rect x="129" y="96" width="62" height="56" rx="16" fill="#fffef8" stroke="rgba(0,0,0,0.08)"/>
  <rect x="129" y="86" width="62" height="8" rx="4" fill="#d33b3b"/>
  <path d="M141 74c-7 10-11 23-11 39 0 27 12 51 30 64" fill="none" stroke="rgba(255,255,255,0.3)" stroke-width="7" stroke-linecap="round"/>
  <text x='160' y='120' fill='#124125' font-size='13' font-family="'PingFang SC','Microsoft YaHei',sans-serif" font-weight='700' text-anchor='middle'>喜力啤酒</text>
  <text x='160' y='139' fill='#124125' font-size='11' font-family="'PingFang SC','Microsoft YaHei',sans-serif" font-weight='600' text-anchor='middle'>Heineken</text>
</svg>
